<?xml version="1.0" encoding="UTF-8"?>
<!-- Generator: Adobe Illustrator 27.1.1, SVG Export Plug-In . SVG Version: 6.00 Build 0)  -->
<svg xmlns="http://www.w3.org/2000/svg" xmlns:xlink="http://www.w3.org/1999/xlink" version="1.1" id="Layer_1" x="0px" y="0px" viewBox="0 0 120 120" style="enable-background:new 0 0 120 120;" xml:space="preserve">
<style type="text/css">
	.st0{clip-path:url(#SVGID_00000143590170728660273530000009296810656719543176_);}
	.st1{fill:#006BFF;}
</style>
<g>
	<defs>
		<rect id="SVGID_1_" x="17.5" y="27" width="85" height="69"></rect>
	</defs>
	<clipPath id="SVGID_00000121248712086213638890000012156472357950248371_">
		<use xlink:href="#SVGID_1_" style="overflow:visible;"></use>
	</clipPath>
	<g style="clip-path:url(#SVGID_00000121248712086213638890000012156472357950248371_);">
		<path class="st1" d="M67.6,73.8c-0.2,0-0.3,0.1-0.4,0.2C67,74.1,67,74.2,67,74.4c0,2.1-0.8,4.2-2.3,5.7c-1.5,1.5-3.5,2.4-5.7,2.4    c-2.1,0-4.2-0.9-5.7-2.4c-1.5-1.5-2.3-3.6-2.4-5.7c0-2.1,0.8-4.2,2.4-5.7c1.5-1.5,3.5-2.4,5.7-2.4c0.2,0,0.3-0.1,0.4-0.2    c0.1-0.1,0.2-0.3,0.2-0.4c0-0.2-0.1-0.3-0.2-0.4c-0.1-0.1-0.3-0.2-0.4-0.2c-2.4,0-4.8,1-6.5,2.7c-1.7,1.7-2.7,4.1-2.7,6.6    c0,2.5,1,4.8,2.7,6.6c1.7,1.7,4.1,2.7,6.5,2.7c2.4,0,4.8-1,6.5-2.7c1.7-1.7,2.7-4.1,2.7-6.6c0-0.2-0.1-0.3-0.2-0.4    C67.9,73.8,67.7,73.8,67.6,73.8z"></path>
		<path class="st1" d="M69.1,64.4L58,75.6L55,72.5c-0.1-0.1-0.1-0.1-0.2-0.1c-0.1,0-0.1,0-0.2,0s-0.2,0-0.2,0    c-0.1,0-0.1,0.1-0.2,0.1c-0.1,0.1-0.1,0.1-0.1,0.2c0,0.1,0,0.2,0,0.2c0,0.1,0,0.2,0,0.2c0,0.1,0.1,0.1,0.1,0.2l3.9,3.9l11.9-12    c0.1-0.1,0.2-0.3,0.2-0.4c0-0.2-0.1-0.3-0.2-0.4c-0.1-0.1-0.1-0.1-0.2-0.1c-0.1,0-0.1,0-0.2,0c-0.1,0-0.2,0-0.2,0    C69.2,64.3,69.2,64.3,69.1,64.4z"></path>
		<path class="st1" d="M84.9,40.4c-2.7,0-5.4,0.6-7.9,1.9c-1.3-4.4-4-8.3-7.7-11c-3.7-2.7-8.1-4.2-12.7-4.2    c-5.2,0-10.2,1.9-14.1,5.3c-3.9,3.4-6.4,8.2-7,13.4c-1-0.2-2-0.3-3-0.3c-4,0-7.8,1.6-10.7,4.5c-2.8,2.9-4.4,6.7-4.4,10.8    c0,4,1.6,7.9,4.4,10.8c2.8,2.9,6.7,4.5,10.7,4.5h9.2V78c0,7.2,6.6,11.2,6.8,11.3L59,96l10.3-6.7c0.3-0.2,6.8-4.2,6.8-11.4v-2.1    h8.8c4.7,0,9.1-1.9,12.4-5.2c3.3-3.3,5.2-7.8,5.2-12.5c0-4.7-1.8-9.2-5.1-12.5C94.1,42.3,89.6,40.4,84.9,40.4z M74.9,78    c0,6.5-6.2,10.3-6.3,10.3L59,94.6l-9.7-6.3c-0.1,0-6.3-3.8-6.3-10.3V60.6l16-6.5l16,6.5L74.9,78z M84.9,74.7h-8.8V59.8l-17.1-7    l-17.1,7v14.9h-9.2c-3.7,0-7.2-1.5-9.8-4.1c-2.6-2.6-4.1-6.2-4.1-9.9c0-3.7,1.5-7.3,4.1-9.9c2.6-2.6,6.1-4.1,9.8-4.1    c1.1,0,2.3,0.1,3.4,0.4l0.7,0.2l0.1-0.7c0.5-5,2.8-9.7,6.5-13.1c3.7-3.4,8.5-5.3,13.5-5.2c4.4,0,8.7,1.5,12.3,4.2    c3.5,2.7,6,6.6,7.2,10.9l0.2,0.7l0.7-0.4c2.4-1.4,5.2-2.1,7.9-2.1c4.3,0,8.5,1.8,11.6,4.9c3.1,3.1,4.8,7.3,4.8,11.7    c0,4.4-1.7,8.6-4.8,11.7C93.4,72.9,89.3,74.7,84.9,74.7z"></path>
		<path class="st1" d="M31.4,49.6c-2.6,0-5.1,1-6.9,2.9c-1.8,1.9-2.9,4.4-2.9,7c0,0.2,0.1,0.3,0.2,0.4c0.1,0.1,0.3,0.2,0.4,0.2    c0.2,0,0.3-0.1,0.4-0.2c0.1-0.1,0.2-0.3,0.2-0.4c0-2.3,0.9-4.5,2.5-6.1s3.8-2.5,6.1-2.5c0.2,0,0.3-0.1,0.4-0.2    c0.1-0.1,0.2-0.3,0.2-0.4s-0.1-0.3-0.2-0.4C31.7,49.7,31.5,49.6,31.4,49.6z"></path>
		<path class="st1" d="M67.7,34.6c-1.4-1.1-3-2-4.7-2.5c-1.7-0.5-3.5-0.7-5.3-0.5c-0.2,0-0.3,0.1-0.4,0.2c-0.1,0.1-0.1,0.3-0.1,0.4    c0,0.1,0,0.2,0.1,0.2c0,0.1,0.1,0.1,0.1,0.2c0.1,0,0.1,0.1,0.2,0.1c0.1,0,0.2,0,0.2,0c1.6-0.2,3.3,0,4.8,0.5    c1.6,0.5,3,1.3,4.3,2.3c1.3,1,2.3,2.3,3.1,3.7c0.8,1.4,1.2,3,1.4,4.7c0,0.1,0.1,0.3,0.2,0.4c0.1,0.1,0.3,0.2,0.4,0.2h0.1    c0.1,0,0.2,0,0.2-0.1c0.1,0,0.1-0.1,0.2-0.1c0-0.1,0.1-0.1,0.1-0.2c0-0.1,0-0.2,0-0.2c-0.2-1.8-0.7-3.5-1.5-5.1    C70.2,37.1,69.1,35.7,67.7,34.6z"></path>
	</g>
</g>
</svg>
