<?xml version="1.0" encoding="UTF-8"?>
<!-- Generator: Adobe Illustrator 27.1.1, SVG Export Plug-In . SVG Version: 6.00 Build 0)  -->
<svg xmlns="http://www.w3.org/2000/svg" xmlns:xlink="http://www.w3.org/1999/xlink" version="1.1" id="Layer_1" x="0px" y="0px" viewBox="0 0 120 120" style="enable-background:new 0 0 120 120;" xml:space="preserve">
<style type="text/css">
	.st0{clip-path:url(#SVGID_00000039132486988130427980000000448375070504275123_);}
	.st1{fill:none;stroke:#0F73FE;stroke-miterlimit:10;}
	.st2{fill:none;stroke:#0F73FE;stroke-linecap:round;stroke-miterlimit:10;}
</style>
<g>
	<defs>
		<rect id="SVGID_1_" x="30" y="19.5" width="60" height="81"></rect>
	</defs>
	<clipPath id="SVGID_00000093161561102529702440000001167626486075470982_">
		<use xlink:href="#SVGID_1_" style="overflow:visible;"></use>
	</clipPath>
	<g style="clip-path:url(#SVGID_00000093161561102529702440000001167626486075470982_);">
		<path class="st1" d="M63.6,91.7H35.9c-1.4,0-2.8-0.6-3.8-1.6c-1-1-1.6-2.4-1.6-3.8v-54c0-1.4,0.6-2.8,1.6-3.8c1-1,2.4-1.6,3.8-1.6    h5.4"></path>
		<path class="st1" d="M66.1,27.1h7.5c1.4,0,2.8,0.6,3.8,1.6c1,1,1.6,2.4,1.6,3.8v41.3"></path>
		<path class="st1" d="M58,24.3c0-0.6-0.1-1.1-0.3-1.7c-0.2-0.5-0.5-1-0.9-1.4c-0.4-0.4-0.9-0.7-1.4-1c-0.5-0.2-1.1-0.3-1.7-0.3    s-1.1,0.1-1.7,0.3c-0.5,0.2-1,0.5-1.4,1c-0.4,0.4-0.7,0.9-0.9,1.4c-0.2,0.5-0.3,1.1-0.3,1.7h-6c-0.6,0-1.1,0.2-1.5,0.6    c-0.4,0.4-0.6,1-0.6,1.5V29h24.8v-2.5c0-0.6-0.2-1.1-0.6-1.5s-1-0.6-1.5-0.6L58,24.3z"></path>
		<path class="st1" d="M53.8,25.6c0.8,0,1.4-0.6,1.4-1.4c0-0.8-0.6-1.4-1.4-1.4s-1.4,0.6-1.4,1.4C52.4,25,53,25.6,53.8,25.6z"></path>
		<path class="st1" d="M44.7,39.3h-4.3c-1,0-1.8,0.8-1.8,1.8v4.3c0,1,0.8,1.8,1.8,1.8h4.3c1,0,1.8-0.8,1.8-1.8V41    C46.5,40.1,45.7,39.3,44.7,39.3z"></path>
		<path class="st1" d="M44.7,51.6h-4.3c-1,0-1.8,0.8-1.8,1.8v4.3c0,1,0.8,1.8,1.8,1.8h4.3c1,0,1.8-0.8,1.8-1.8v-4.3    C46.5,52.4,45.7,51.6,44.7,51.6z"></path>
		<path class="st1" d="M44.7,63.9h-4.3c-1,0-1.8,0.8-1.8,1.8V70c0,1,0.8,1.8,1.8,1.8h4.3c1,0,1.8-0.8,1.8-1.8v-4.3    C46.5,64.7,45.7,63.9,44.7,63.9z"></path>
		<path class="st2" d="M50.3,43.2h22.3"></path>
		<path class="st2" d="M50.3,55.5h13.3"></path>
		<path class="st2" d="M50.3,67.8h19.2"></path>
		<path class="st1" d="M76.1,100c7.4,0,13.4-6,13.4-13.3s-6-13.3-13.4-13.3c-7.4,0-13.4,6-13.4,13.3S68.7,100,76.1,100z"></path>
		<path class="st2" d="M82.7,86.8c0,1.3-0.4,2.6-1.1,3.6c-0.7,1.1-1.8,1.9-3,2.4c-1.2,0.5-2.5,0.6-3.8,0.4c-1.3-0.3-2.4-0.9-3.4-1.8    c-0.9-0.9-1.5-2.1-1.8-3.4c-0.3-1.3-0.1-2.6,0.4-3.8c0.5-1.2,1.3-2.2,2.4-2.9c1.1-0.7,2.4-1.1,3.7-1.1"></path>
		<path class="st2" d="M72.5,85.9l2.9,2.9l8.9-8.8"></path>
	</g>
</g>
</svg>
