<?xml version="1.0" encoding="UTF-8"?>
<!-- Generator: Adobe Illustrator 27.1.1, SVG Export Plug-In . SVG Version: 6.00 Build 0)  -->
<svg xmlns="http://www.w3.org/2000/svg" xmlns:xlink="http://www.w3.org/1999/xlink" version="1.1" id="Layer_1" x="0px" y="0px" viewBox="0 0 120 120" style="enable-background:new 0 0 120 120;" xml:space="preserve">
<style type="text/css">
	.st0{clip-path:url(#SVGID_00000096043475202002387640000012753737977247989157_);}
	.st1{fill:#0F73FE;}
</style>
<g>
	<defs>
		<rect id="SVGID_1_" x="25" y="26.5" width="69.5" height="66.5"></rect>
	</defs>
	<clipPath id="SVGID_00000130609250796981180890000015558763350058651575_">
		<use xlink:href="#SVGID_1_" style="overflow:visible;"></use>
	</clipPath>
	<g style="clip-path:url(#SVGID_00000130609250796981180890000015558763350058651575_);">
		<path class="st1" d="M68.4,77.6h-1.2c-0.1,0-0.3-0.1-0.4-0.1c-0.1-0.1-0.1-0.2-0.1-0.4s0.1-0.3,0.1-0.4c0.1-0.1,0.2-0.1,0.4-0.1    h1.2c0.4,0,0.8-0.2,1.1-0.4c0.3-0.3,0.5-0.7,0.6-1.1L72.7,60c0.1-0.6,0-1.1-0.1-1.7c-0.2-0.5-0.4-1-0.8-1.5    c-0.4-0.4-0.8-0.8-1.4-1c-0.5-0.2-1.1-0.4-1.6-0.4h-0.9c-0.7,1.6-1.8,3-3.3,4c-1.5,1-3.2,1.5-4.9,1.5c-1.8,0-3.5-0.5-4.9-1.5    c-1.5-1-2.6-2.4-3.3-4h-0.9c-0.6,0-1.1,0.1-1.6,0.3c-0.5,0.2-1,0.6-1.4,1c-0.4,0.4-0.6,0.9-0.8,1.5c-0.2,0.5-0.2,1.1-0.1,1.7    l2.5,14.9c0.1,0.4,0.3,0.9,0.6,1.1c0.3,0.3,0.8,0.5,1.2,0.5h1.3c0.1,0,0.3,0.1,0.4,0.1c0.1,0.1,0.1,0.2,0.1,0.4    c0,0.1-0.1,0.3-0.1,0.4c-0.1,0.1-0.2,0.1-0.4,0.1h-1.2c-0.7,0-1.3-0.2-1.9-0.7c-0.5-0.5-0.9-1.1-1-1.8l-2.5-14.9    c-0.1-0.7,0-1.4,0.2-2.1c0.2-0.7,0.5-1.3,1-1.8c0.5-0.5,1-1,1.7-1.3c0.6-0.3,1.3-0.4,2.1-0.4h1.6l0.1,0.3c0.5,1.5,1.6,2.8,2.9,3.8    c1.3,0.9,2.9,1.4,4.5,1.4s3.2-0.5,4.5-1.4c1.3-0.9,2.3-2.2,2.9-3.8l0.1-0.3h1.5c0.7,0,1.4,0.1,2,0.4c0.6,0.3,1.2,0.7,1.7,1.3    c0.5,0.5,0.8,1.2,1,1.8c0.2,0.7,0.3,1.4,0.2,2.1l-2.6,15.1c-0.1,0.6-0.4,1.2-0.9,1.7C69.7,77.4,69.1,77.6,68.4,77.6L68.4,77.6z"></path>
		<path class="st1" d="M59.7,57.2c-1.2,0-2.3-0.3-3.3-1c-1-0.7-1.7-1.6-2.2-2.7c-0.5-1.1-0.6-2.3-0.3-3.4c0.2-1.2,0.8-2.2,1.6-3    c0.8-0.8,1.9-1.4,3-1.6c1.2-0.2,2.4-0.1,3.4,0.3c1.1,0.5,2,1.2,2.7,2.2c0.7,1,1,2.1,1,3.3c0,1.6-0.6,3.1-1.8,4.2    C62.8,56.6,61.3,57.2,59.7,57.2L59.7,57.2z M59.7,46.3c-1,0-1.9,0.3-2.8,0.8c-0.8,0.5-1.5,1.3-1.8,2.2c-0.4,0.9-0.5,1.9-0.3,2.9    c0.2,1,0.7,1.8,1.4,2.5c0.7,0.7,1.6,1.2,2.5,1.4c1,0.2,2,0.1,2.9-0.3c0.9-0.4,1.7-1,2.2-1.8c0.5-0.8,0.8-1.8,0.8-2.8    c0-1.3-0.5-2.6-1.5-3.5C62.3,46.9,61,46.4,59.7,46.3L59.7,46.3z"></path>
		<path class="st1" d="M41,93c-0.7,0-1.4-0.2-2-0.5s-1.2-0.8-1.6-1.3c-0.4-0.6-0.7-1.2-0.8-1.9c-0.1-0.7-0.1-1.4,0.2-2l5.4-16.7    c0.2-0.7,0.2-1.4,0-2.1c-0.2-0.7-0.7-1.3-1.2-1.7L26.8,56.5c-0.7-0.5-1.3-1.3-1.6-2.2c-0.3-0.9-0.3-1.8,0-2.7    c0.3-0.9,0.8-1.6,1.6-2.2c0.7-0.5,1.7-0.8,2.6-0.8h17.5c0.7,0,1.4-0.2,2-0.6c0.6-0.4,1-1,1.2-1.7l5.4-16.7    c0.3-0.9,0.8-1.6,1.6-2.2c0.8-0.5,1.7-0.8,2.6-0.8c0.9,0,1.8,0.3,2.6,0.8c0.8,0.5,1.3,1.3,1.6,2.2l5.4,16.7    c0.2,0.7,0.6,1.3,1.2,1.7c0.6,0.4,1.3,0.6,2,0.6h17.5c0.9,0,1.8,0.3,2.6,0.8c0.7,0.5,1.3,1.3,1.6,2.2c0.3,0.9,0.3,1.8,0,2.7    c-0.3,0.9-0.8,1.6-1.6,2.2L78.5,66.7c-0.6,0.4-1,1-1.2,1.7c-0.2,0.7-0.2,1.4,0,2.1l5.4,16.7c0.3,0.9,0.3,1.8,0,2.7    c-0.3,0.9-0.8,1.6-1.6,2.2c-0.7,0.5-1.7,0.8-2.6,0.8s-1.8-0.3-2.6-0.8L61.7,81.8c-0.6-0.4-1.3-0.7-2-0.7c-0.7,0-1.4,0.2-2,0.7    L43.6,92.1C42.8,92.7,41.9,93,41,93L41,93z M29.4,49.5c-0.7,0-1.4,0.2-2,0.6c-0.6,0.4-1,1-1.2,1.7c-0.2,0.7-0.2,1.4,0,2.1    c0.2,0.7,0.7,1.3,1.2,1.7L41.6,66c0.8,0.5,1.3,1.3,1.6,2.2c0.3,0.9,0.3,1.8,0,2.7l-5.4,16.7c-0.2,0.7-0.2,1.4,0,2.1    c0.2,0.7,0.7,1.3,1.2,1.7c0.6,0.4,1.3,0.6,2,0.6c0.7,0,1.4-0.2,2-0.6L57.2,81c0.7-0.5,1.7-0.8,2.6-0.8c0.9,0,1.8,0.3,2.6,0.8    l14.2,10.3c0.6,0.4,1.3,0.6,2,0.7c0.7,0,1.4-0.2,2-0.6c0.6-0.4,1-1,1.2-1.7c0.2-0.7,0.2-1.4,0-2.1l-5.4-16.7    C76,70,76,69,76.3,68.2c0.3-0.9,0.8-1.6,1.6-2.2l14.2-10.3c0.6-0.4,1-1,1.2-1.7c0.2-0.7,0.2-1.4,0-2.1c-0.2-0.7-0.7-1.3-1.2-1.7    c-0.6-0.4-1.3-0.6-2-0.6H72.6c-0.9,0-1.8-0.3-2.6-0.8c-0.8-0.5-1.3-1.3-1.6-2.2L63,29.9c-0.2-0.7-0.7-1.3-1.2-1.7    c-0.6-0.4-1.3-0.6-2-0.6s-1.4,0.2-2,0.6c-0.6,0.4-1,1-1.2,1.7l-5.4,16.7c-0.3,0.9-0.9,1.6-1.6,2.2c-0.7,0.5-1.6,0.8-2.6,0.8H29.4z    "></path>
		<path class="st1" d="M54,79.8c-0.1,0-0.3-0.1-0.4-0.1c-0.1-0.1-0.1-0.2-0.1-0.4V70c0-0.1,0.1-0.3,0.1-0.4c0.1-0.1,0.2-0.1,0.4-0.1    s0.3,0.1,0.4,0.1c0.1,0.1,0.1,0.2,0.1,0.4v9.3c0,0.1-0.1,0.3-0.1,0.4C54.3,79.7,54.2,79.8,54,79.8z"></path>
		<path class="st1" d="M65.6,79.8c-0.1,0-0.3-0.1-0.4-0.1c-0.1-0.1-0.1-0.2-0.1-0.4V70c0-0.1,0.1-0.3,0.1-0.4    c0.1-0.1,0.2-0.1,0.4-0.1c0.1,0,0.3,0.1,0.4,0.1c0.1,0.1,0.1,0.2,0.1,0.4v9.3c0,0.1-0.1,0.3-0.1,0.4    C65.8,79.7,65.7,79.8,65.6,79.8z"></path>
	</g>
</g>
</svg>
